<svg
  width="24"
  height="24"
  viewBox="0 0 24 24"
  xmlns="http://www.w3.org/2000/svg"
  fill="none"
  stroke="currentColor"
  stroke-width="2"
  stroke-linecap="round"
  stroke-linejoin="round"
>
  <path d="M20 17v3a2 2 0 0 1-2 2H6a2 2 0 0 1-2-2V6a2 2 0 0 1 2-2h2" />
  <rect x="8" y="2" width="8" height="4" rx="1" ry="1" />
  <line x1="-7" y1="28" x2="1" y2="28" />
  <line x1="-9" y1="4" x2="-3" y2="4" />
  <path d="M19.222 7.123c1.014-1.015 2.745-.551 3.117.837a1.87 1.87 0 0 1-.482 1.803l-8.344 8.357L10 19l.878-3.519 8.344-8.358z" />
  <line x1="16" y1="4" x2="18" y2="4" />
</svg>
